<?xml version="1.0" encoding="UTF-8" standalone="no"?>
<!-- Creator: CorelDRAW -->

<svg
   xml:space="preserve"
   width="484.70892mm"
   height="123.44593mm"
   version="1.1"
   style="clip-rule:evenodd;fill-rule:evenodd;image-rendering:optimizeQuality;shape-rendering:geometricPrecision;text-rendering:geometricPrecision"
   viewBox="0 0 48470.892 12344.593"
   id="svg13"
   sodipodi:docname="Banner vagar web.svg"
   inkscape:version="1.4 (86a8ad7, 2024-10-11)"
   xmlns:inkscape="http://www.inkscape.org/namespaces/inkscape"
   xmlns:sodipodi="http://sodipodi.sourceforge.net/DTD/sodipodi-0.dtd"
   xmlns="http://www.w3.org/2000/svg"
   xmlns:svg="http://www.w3.org/2000/svg"><sodipodi:namedview
   id="namedview13"
   pagecolor="#ffffff"
   bordercolor="#000000"
   borderopacity="0.25"
   inkscape:showpageshadow="2"
   inkscape:pageopacity="0.0"
   inkscape:pagecheckerboard="0"
   inkscape:deskcolor="#d1d1d1"
   inkscape:document-units="mm"
   inkscape:zoom="0.15858566"
   inkscape:cx="1415.6387"
   inkscape:cy="138.72629"
   inkscape:window-width="1360"
   inkscape:window-height="697"
   inkscape:window-x="-8"
   inkscape:window-y="-8"
   inkscape:window-maximized="1"
   inkscape:current-layer="Capa_x0020_1" />
 <defs
   id="defs2">
  <style
   type="text/css"
   id="style1">
   <![CDATA[
    .fil13 {fill:none}
    .fil8 {fill:#0096D6;fill-opacity:0.309804}
    .fil7 {fill:#009EBD;fill-opacity:0.309804}
    .fil11 {fill:#0876A1;fill-opacity:0.309804}
    .fil12 {fill:#0D64AB;fill-opacity:0.309804}
    .fil10 {fill:#40917F;fill-opacity:0.309804}
    .fil6 {fill:#4DAB98;fill-opacity:0.309804}
    .fil9 {fill:#649E54;fill-opacity:0.309804}
    .fil5 {fill:#83BD71;fill-opacity:0.309804}
    .fil4 {fill:#A8CF45;fill-opacity:0.309804}
    .fil3 {fill:#009EBD;fill-rule:nonzero;fill-opacity:0.309804}
    .fil2 {fill:#4DAB98;fill-rule:nonzero;fill-opacity:0.309804}
    .fil1 {fill:#83BD71;fill-rule:nonzero;fill-opacity:0.309804}
    .fil0 {fill:url(#id1)}
   ]]>
  </style>
   <clipPath
   id="id0">
    <path
   d="M -90.84,11330.27 H 48380.05 V 21672.79 H -90.84 Z"
   id="path1" />
   </clipPath>
  <linearGradient
   id="id1"
   gradientUnits="userSpaceOnUse"
   x1="-90.839996"
   y1="16501.529"
   x2="48380.051"
   y2="16501.529">
   <stop
   offset="0"
   style="stop-opacity:1; stop-color:#0096D6"
   id="stop1" />
   <stop
   offset="1"
   style="stop-opacity:1; stop-color:#A8CF45"
   id="stop2" />
  </linearGradient>
 </defs>
 <g
   id="Capa_x0020_1"
   inkscape:label="Capa 1"
   inkscape:groupmode="layer"
   transform="translate(90.84,-9328.198)">
  <metadata
   id="CorelCorpID_0Corel-Layer" />
  <polygon
   class="fil0"
   points="-90.84,21672.79 -90.84,11330.27 48380.05,11330.27 48380.05,21672.79 "
   id="polygon2"
   style="fill:url(#id1)"
   transform="matrix(1,0,0,1.1935769,0,-4195.3505)" />
  <g
   clip-path="url(#id0)"
   id="g13"
   transform="matrix(1.1855112,0,0,1.1855112,-8975.0388,-4020.5442)">
   <g
   id="_2912661503664">
    <g
   id="g12">
     <path
   id="_1"
   class="fil1"
   d="m 42548.51,-3254.13 c -703.98,1169.12 -1349.67,2426.78 -1918.89,3799.74 -682.06,1645.08 -1256.55,3459.1 -1693.51,5488.8 l -450.33,-97.04 c 442.77,-2056.67 1025.86,-3897 1718.58,-5567.91 597.53,-1441.2 1275.35,-2754.22 2014,-3969.66 -190.86,-3468.91 2389.53,-5467.92 5314.91,-5254.57 -2913.03,1378.46 -1986.54,5154.99 -4984.76,5600.64 z" />
     <path
   class="fil2"
   d="m 49523.39,-8622.36 c -880.89,1638.18 -1652.18,3401.46 -2252.05,5360.12 -676.31,2208.32 -1135.02,4666.6 -1287.7,7476.24 l -460.04,-23.43 c 154.75,-2848.43 620.56,-5343.2 1307.56,-7586.26 635.04,-2073.64 1459.09,-3931.14 2400.91,-5653.54 -195.99,-3418.11 2339.42,-5421.15 5245.4,-5250.3 -2908.81,1426.81 -1904.13,5221.78 -4954.08,5677.17 z"
   id="path2" />
     <path
   class="fil3"
   d="m 51980.56,-640.62 c -307.11,1394.13 -522.42,2862.38 -617.4,4427.15 -110.84,1825.68 -58.57,3787.14 201.67,5921.48 l -457.28,55.67 c -263.34,-2159.51 -315.96,-4148.77 -203.28,-6004.23 97.2,-1600.99 317.34,-3099.7 631.03,-4519.88 -1354.15,-3255.46 451.93,-6013.99 3312.24,-6758.64 -2299.85,2227.47 -251.14,5476.73 -2866.98,6878.45 z"
   id="path3" />
     <path
   class="fil4"
   d="m 27186.22,7288.65 c 560.89,12280.77 5101.21,15666.88 17635.26,14869.08 C 40112.22,10670.76 32489.55,12116.31 27186.22,7288.65 Z"
   id="path4" />
     <path
   class="fil5"
   d="M 37111.88,417.15 C 31392.77,11299.43 33600.93,16515.18 44821.48,22157.74 46559.35,9865.18 39250.42,7262.45 37111.88,417.15 Z"
   id="path5" />
     <path
   class="fil6"
   d="M 48680.54,-584.25 C 38384.3,6132.89 37771.62,11763.6 44821.47,22157.78 52327.97,12269.39 47213.12,6435.61 48680.54,-584.25 Z"
   id="path6" />
     <path
   class="fil7"
   d="M 59017.47,3976.34 C 46766.44,4998.2 43553.28,9662.54 44821.45,22157.78 56123.37,17020.27 54392.45,9457.3 59017.47,3976.34 Z"
   id="path7" />
     <path
   class="fil8"
   d="M 66081.04,13206.77 C 54886.95,8124.98 49807.25,10630.38 44821.43,22157.78 57193.79,23183.58 59370.5,15736.67 66081.04,13206.77 Z"
   id="path8" />
     <path
   class="fil9"
   d="m 34131.96,11210.59 c 505.17,4361.05 4011.14,8010.41 10689.45,10947.19 v -0.14 C 41947.08,15146.08 37987.3,12953.02 34131.96,11210.59 Z"
   id="path9" />
     <path
   class="fil10"
   d="m 40957.43,7074.35 c -1896.36,4136.87 -1030.75,9375.16 3863.98,15083.43 1085.31,-7674.76 -1356.05,-11572.33 -3863.98,-15083.43 z"
   id="path10" />
     <path
   class="fil11"
   d="m 48773.53,6908.66 c -3791.81,2718.25 -5503.65,7936.68 -3952.12,15249.12 4757.6,-6267.01 4445.4,-10905.23 3952.12,-15249.12 z"
   id="path11" />
     <path
   class="fil12"
   d="m 55465.46,10802.46 c -4503.71,623.81 -8435.62,4442.52 -10602.92,11355.32 7052.64,-3205.67 8989.08,-7355.76 10602.92,-11355.32 z"
   id="path12" />
    </g>
   </g>
  </g>
  <polygon
   class="fil13"
   points="48380.05,21672.79 -90.84,21672.79 -90.84,11330.27 48380.05,11330.27 "
   id="polygon13" />
 </g>
</svg>
