<?xml version="1.0" encoding="UTF-8"?>
<!DOCTYPE svg PUBLIC "-//W3C//DTD SVG 1.1//EN" "http://www.w3.org/Graphics/SVG/1.1/DTD/svg11.dtd">
<!-- Creator: CorelDRAW -->
<svg xmlns="http://www.w3.org/2000/svg" xml:space="preserve" width="297mm" height="210mm" version="1.1" style="shape-rendering:geometricPrecision; text-rendering:geometricPrecision; image-rendering:optimizeQuality; fill-rule:evenodd; clip-rule:evenodd"
viewBox="0 0 29700 21000"
 xmlns:xlink="http://www.w3.org/1999/xlink"
 xmlns:xodm="http://www.corel.com/coreldraw/odm/2003">
 <defs>
  <style type="text/css">
   <![CDATA[
    .fil0 {fill:black}
    .fil8 {fill:#0096D6}
    .fil7 {fill:#009EBD}
    .fil11 {fill:#0876A1}
    .fil12 {fill:#0D64AB}
    .fil10 {fill:#40917F}
    .fil6 {fill:#4DAB98}
    .fil9 {fill:#649E54}
    .fil5 {fill:#83BD71}
    .fil4 {fill:#A8CF45}
    .fil3 {fill:#009EBD;fill-rule:nonzero}
    .fil2 {fill:#4DAB98;fill-rule:nonzero}
    .fil1 {fill:#83BD71;fill-rule:nonzero}
   ]]>
  </style>
 </defs>
 <g id="Capa_x0020_1">
  <metadata id="CorelCorpID_0Corel-Layer"/>
  <path class="fil0" d="M20579.13 15153.96l-1963.73 -4433.83 -1963.73 4433.35c52.52,-33.77 499.28,-29.59 548,0.01l1553.02 -3506.31c438.62,991.74 877.24,1983.49 1315.87,2975.23 153.7,380.74 327.73,510.35 510.57,531.55zm-8724.22 0l-1963.73 -4433.83 -1963.73 4433.35c52.52,-33.77 499.28,-29.59 548.01,0.01l1553.01 -3506.31c438.62,991.74 877.24,1983.49 1315.87,2975.23 153.7,380.74 327.74,510.35 510.57,531.55zm-3727.69 -4433.83l-1963.73 4433.83 -1963.73 -4433.35c52.52,33.77 499.28,29.59 548.01,-0.01l1553.01 3506.3c438.62,-991.73 877.24,-1983.48 1315.87,-2975.22 153.7,-380.74 327.73,-510.35 510.57,-531.55zm6122.41 4433.6c-1246.38,0 -1951.18,-882.38 -1951.18,-2217.57 0,-1303.79 727.34,-2214.7 1951.05,-2214.7 1013.82,0 1623.25,625.23 1872.94,1581.1 -111.02,-21.24 -383.67,-22.75 -517.47,0 -214.88,-755.3 -602.74,-1344.02 -1355.47,-1344.02 -951.32,0 -1441.56,940.25 -1441.56,1968.8 0,1071.61 458.96,1984.31 1441.69,1984.31 826.39,0 1222.77,-645.44 1393.33,-1488l-777.98 -2.66c-239.72,0 -480.58,18.21 -615.35,-240.42l1429.89 0 511.61 0c-104.44,1197.39 -772.85,1973.16 -1941.5,1973.16zm10393.52 0c174.13,-22.23 341.68,-22.32 502.68,0 -535.16,-1270.8 -597.03,-1856.62 -1384.8,-2143.7l21.85 0c1589.73,-0.03 1589.76,-2289.46 0.04,-2289.43l-2293.18 -0.02 0 4433.6c157.44,-19.94 324.87,-21 504.56,-0.45l0 -4195.19 1788.58 0c511.78,0 689.85,450.44 690.26,903.13 0.43,453.56 -177.52,908 -690.26,908l-1207.52 -0.01 2.74 0.59 -2.63 -0.26c1340.98,344.17 1605.24,1329.83 2067.68,2383.74z"/>
  <g id="_2124982588336">
   <path class="fil1" d="M13732.96 3759.25c-166.48,276.48 -319.17,573.89 -453.78,898.57 -161.29,389.03 -297.15,818.01 -400.48,1298l-106.49 -22.95c104.7,-486.36 242.59,-921.57 406.41,-1316.71 141.3,-340.81 301.59,-651.32 476.27,-938.75 -45.14,-820.33 565.08,-1293.06 1256.88,-1242.61 -688.89,325.98 -469.78,1219.07 -1178.81,1324.45z"/>
   <path class="fil2" d="M15382.39 2489.77c-208.31,387.39 -390.71,804.38 -532.57,1267.57 -159.93,522.22 -268.41,1103.56 -304.51,1767.99l-108.8 -5.54c36.6,-673.61 146.76,-1263.57 309.22,-1794.02 150.18,-490.37 345.05,-929.64 567.77,-1336.95 -46.35,-808.32 553.23,-1282 1240.44,-1241.6 -687.88,337.41 -450.29,1234.85 -1171.55,1342.55z"/>
   <path class="fil3" d="M15963.47 4377.29c-72.63,329.69 -123.55,676.91 -146.01,1046.94 -26.21,431.74 -13.85,895.59 47.69,1400.32l-108.14 13.17c-62.27,-510.69 -74.71,-981.11 -48.07,-1419.89 22.99,-378.6 75.05,-733.02 149.23,-1068.87 -320.23,-769.85 106.87,-1422.19 783.28,-1598.29 -543.87,526.76 -59.38,1295.15 -677.98,1626.62z"/>
   <path class="fil4" d="M10100.07 6252.42c132.64,2904.17 1206.34,3704.93 4170.41,3516.26 -1113.65,-2716.45 -2916.27,-2374.61 -4170.41,-3516.26z"/>
   <path class="fil5" d="M12447.3 4627.44c-1352.46,2573.45 -830.27,3806.88 1823.18,5141.24 410.97,-2906.96 -1317.46,-3522.45 -1823.18,-5141.24z"/>
   <path class="fil6" d="M15183.07 4390.63c-2434.86,1588.48 -2579.75,2920.03 -912.6,5378.06 1775.15,-2338.42 565.59,-3718 912.6,-5378.06z"/>
   <path class="fil7" d="M17627.56 5469.12c-2897.14,241.66 -3656.99,1344.68 -3357.09,4299.57 2672.69,-1214.92 2263.36,-3003.42 3357.09,-4299.57z"/>
   <path class="fil8" d="M19297.96 7651.94c-2647.19,-1201.74 -3848.44,-609.26 -5027.5,2116.75 2925.84,242.58 3440.59,-1518.47 5027.5,-2116.75z"/>
   <path class="fil9" d="M11742.61 7179.88c119.46,1031.31 948.56,1894.32 2527.85,2588.81l0 -0.03c-679.73,-1658.1 -1616.14,-2176.72 -2527.85,-2588.78z"/>
   <path class="fil10" d="M13356.7 6201.74c-448.45,978.29 -243.75,2217.05 913.76,3566.95 256.66,-1814.94 -320.68,-2736.64 -913.76,-3566.95z"/>
   <path class="fil11" d="M15205.06 6162.56c-896.69,642.82 -1301.51,1876.87 -934.6,3606.13 1125.08,-1482.03 1051.25,-2578.88 934.6,-3606.13z"/>
   <path class="fil12" d="M16787.58 7083.37c-1065.05,147.52 -1994.87,1050.57 -2507.39,2685.32 1667.81,-758.08 2125.74,-1739.5 2507.39,-2685.32z"/>
  </g>
 </g>
</svg>
