<?xml version="1.0" encoding="UTF-8"?>
<!DOCTYPE svg PUBLIC "-//W3C//DTD SVG 1.1//EN" "http://www.w3.org/Graphics/SVG/1.1/DTD/svg11.dtd">
<!-- Creator: CorelDRAW -->
<svg xmlns="http://www.w3.org/2000/svg" xml:space="preserve" width="297mm" height="210mm" version="1.1" style="shape-rendering:geometricPrecision; text-rendering:geometricPrecision; image-rendering:optimizeQuality; fill-rule:evenodd; clip-rule:evenodd"
viewBox="0 0 29700 21000"
 xmlns:xlink="http://www.w3.org/1999/xlink"
 xmlns:xodm="http://www.corel.com/coreldraw/odm/2003">
 <defs>
  <style type="text/css">
   <![CDATA[
    .fil0 {fill:black}
    .fil8 {fill:#0096D6}
    .fil7 {fill:#009EBD}
    .fil11 {fill:#0876A1}
    .fil12 {fill:#0D64AB}
    .fil10 {fill:#40917F}
    .fil6 {fill:#4DAB98}
    .fil9 {fill:#649E54}
    .fil5 {fill:#83BD71}
    .fil4 {fill:#A8CF45}
    .fil3 {fill:#009EBD;fill-rule:nonzero}
    .fil2 {fill:#4DAB98;fill-rule:nonzero}
    .fil1 {fill:#83BD71;fill-rule:nonzero}
   ]]>
  </style>
 </defs>
 <g id="Capa_x0020_1">
  <metadata id="CorelCorpID_0Corel-Layer"/>
  <path class="fil0" d="M23235.69 12970.18l-1915.24 -4324.36 -1915.25 4323.89c51.23,-32.94 486.96,-28.86 534.48,0.01l1514.67 -3419.73c427.79,967.24 855.58,1934.51 1283.37,2901.76 149.91,371.34 319.65,497.75 497.97,518.43zm-8508.81 0l-1915.24 -4324.36 -1915.25 4323.89c51.23,-32.94 486.96,-28.86 534.48,0.01l1514.67 -3419.73c427.79,967.24 855.58,1934.51 1283.38,2901.76 149.9,371.34 319.64,497.75 497.96,518.43zm-3635.65 -4324.36l-1915.24 4324.36 -1915.25 -4323.89c51.23,32.94 486.96,28.86 534.48,-0.01l1514.67 3419.73c427.79,-967.25 855.58,-1934.51 1283.37,-2901.76 149.91,-371.34 319.65,-497.75 497.97,-518.43zm5971.25 4324.13c-1215.61,0 -1903.01,-860.6 -1903.01,-2162.81 0,-1271.6 709.38,-2160.02 1902.87,-2160.02 988.79,0 1583.18,609.79 1826.7,1542.06 -108.28,-20.72 -374.2,-22.19 -504.69,0 -209.58,-736.65 -587.86,-1310.83 -1322.01,-1310.83 -927.82,0 -1405.96,917.03 -1405.96,1920.18 0,1045.16 447.63,1935.32 1406.1,1935.32 805.98,0 1192.58,-629.5 1358.92,-1451.26l-758.77 -2.6c-233.81,0 -468.71,17.77 -600.15,-234.48l1394.58 0 498.97 0c-101.86,1167.83 -753.76,1924.44 -1893.55,1924.44zm10136.88 0c169.84,-21.68 333.25,-21.77 490.27,0 -521.94,-1239.42 -582.29,-1810.78 -1350.6,-2090.77l21.3 0c1550.49,-0.03 1550.51,-2232.93 0.05,-2232.9l-2236.56 -0.02 0 4324.13c153.55,-19.44 316.84,-20.48 492.1,-0.44l0 -4091.6 1744.41 0c499.15,0 672.83,439.31 673.23,880.83 0.41,442.36 -173.14,885.58 -673.23,885.58l-1177.7 -0.02 2.68 0.58 -2.57 -0.25c1307.87,335.67 1565.6,1296.99 2016.62,2324.88z"/>
  <g id="_2253806745168">
   <path class="fil1" d="M4003.83 9407.44c-98.06,162.84 -187.99,338.01 -267.27,529.23 -95,229.13 -175.01,481.79 -235.87,764.49l-62.72 -13.52c61.66,-286.45 142.88,-542.78 239.36,-775.5 83.22,-200.73 177.63,-383.61 280.51,-552.9 -26.58,-483.16 332.82,-761.58 740.27,-731.87 -405.73,192 -276.69,718 -694.28,780.07z"/>
   <path class="fil2" d="M4975.29 8659.75c-122.69,228.16 -230.11,473.76 -313.66,746.56 -94.2,307.58 -158.09,649.97 -179.35,1041.3l-64.08 -3.26c21.55,-396.74 86.43,-744.21 182.12,-1056.63 88.45,-288.82 203.22,-547.53 334.4,-787.43 -27.3,-476.08 325.84,-755.06 730.58,-731.27 -405.14,198.73 -265.2,727.3 -690.01,790.73z"/>
   <path class="fil3" d="M5317.53 9771.45c-42.77,194.18 -72.76,398.68 -85.99,616.62 -15.44,254.28 -8.16,527.48 28.09,824.75l-63.69 7.75c-36.68,-300.78 -44.01,-577.84 -28.31,-836.27 13.53,-222.99 44.19,-431.73 87.88,-629.54 -188.6,-453.42 62.95,-837.63 461.34,-941.35 -320.33,310.25 -34.98,762.81 -399.32,958.04z"/>
   <path class="fil4" d="M1864.15 10875.85c78.12,1710.48 710.5,2182.1 2456.26,2070.98 -655.91,-1599.92 -1717.61,-1398.58 -2456.26,-2070.98z"/>
   <path class="fil5" d="M3246.61 9918.78c-796.57,1515.69 -489.01,2242.15 1073.8,3028.05 242.05,-1712.12 -775.95,-2074.63 -1073.8,-3028.05z"/>
   <path class="fil6" d="M4857.9 9779.3c-1434.07,935.57 -1519.41,1719.82 -537.49,3167.54 1045.51,-1377.27 333.11,-2189.8 537.49,-3167.54z"/>
   <path class="fil7" d="M6297.64 10414.51c-1706.34,142.32 -2153.87,791.98 -1977.24,2532.33 1574.15,-715.56 1333.06,-1768.94 1977.24,-2532.33z"/>
   <path class="fil8" d="M7281.46 11700.13c-1559.12,-707.79 -2266.63,-358.84 -2961.06,1246.71 1723.24,142.87 2026.41,-894.34 2961.06,-1246.71z"/>
   <path class="fil9" d="M2831.56 11422.1c70.36,607.41 558.68,1115.7 1488.84,1524.74l0 -0.02c-400.34,-976.58 -951.87,-1282.03 -1488.84,-1524.72z"/>
   <path class="fil10" d="M3782.22 10846c-264.13,576.19 -143.57,1305.78 538.18,2100.84 151.16,-1068.95 -188.87,-1611.81 -538.18,-2100.84z"/>
   <path class="fil11" d="M4870.85 10822.92c-528.12,378.61 -766.55,1105.43 -550.45,2123.92 662.64,-872.88 619.16,-1518.9 550.45,-2123.92z"/>
   <path class="fil12" d="M5802.91 11365.26c-627.28,86.88 -1174.92,618.76 -1476.78,1581.58 982.29,-446.49 1252,-1024.52 1476.78,-1581.58z"/>
  </g>
 </g>
</svg>
