<?xml version="1.0" encoding="UTF-8" standalone="no"?>
<svg
   xml:space="preserve"
   width="100%"
   height="100%"
   version="1.1"
   style="clip-rule:evenodd;fill-rule:evenodd;image-rendering:optimizeQuality;shape-rendering:geometricPrecision;text-rendering:geometricPrecision"
   viewBox="0 0 4026.8799 1339.2"
   id="svg3097"
   sodipodi:docname="svg-nodos.svg"
   inkscape:version="1.4 (86a8ad7, 2024-10-11)"
   xmlns:inkscape="http://www.inkscape.org/namespaces/inkscape"
   xmlns:sodipodi="http://sodipodi.sourceforge.net/DTD/sodipodi-0.dtd"
   xmlns="http://www.w3.org/2000/svg"
   xmlns:svg="http://www.w3.org/2000/svg"><defs
   id="defs37" /><sodipodi:namedview
   id="namedview37"
   pagecolor="#ffffff"
   bordercolor="#000000"
   borderopacity="0.25"
   inkscape:showpageshadow="2"
   inkscape:pageopacity="0.0"
   inkscape:pagecheckerboard="0"
   inkscape:deskcolor="#d1d1d1"
   inkscape:zoom="1.2102124"
   inkscape:cx="3066.8171"
   inkscape:cy="941.15712"
   inkscape:window-width="1920"
   inkscape:window-height="1009"
   inkscape:window-x="-8"
   inkscape:window-y="-8"
   inkscape:window-maximized="1"
   inkscape:current-layer="svg3097" />

  <g
   id="_2_-_8-9"
   transform="translate(-1937,-1630)">
   <polygon
   points="-3510.68,19004.88 -4752.46,18721.86 -4553.83,16767.47 -2956.1,16950.01 -3102.14,18995.28 "
   transform="matrix(0.0377844,0,0,0.03777342,2362.4313,1895.9791)"
   id="polygon1" />  
 </g>
  <g
   id="_5_-_14-15"
   transform="translate(-1937,-1630)">
   <polygon
   points="18246.37,13218 18672.57,12696.13 19545.93,12072.74 19894.03,10583.32 18643.42,10680.59 17517.88,10958.5 17412.17,11103.42 "
   transform="matrix(0.0377844,0,0,0.03777342,2362.4313,1895.9791)"
   id="polygon2" />
 </g>
  <g
   id="_9_-_13-14"
   transform="translate(-1937,-1630)">
   <polygon
   points="39229,10700.16 40852.23,12582.3 42229,11531.03 40852.8,9696.1 40552.8,9719.18 "
   transform="matrix(0.0377844,0,0,0.03777342,2362.4313,1895.9791)"
   id="polygon3" />
 </g>
  <g
   id="_9_-_11"
   transform="translate(-1937,-1630)">
   <polygon
   points="37719.51,11837.87 39275.01,13786.25 40049.64,13195.09 38452.84,11285 "
   transform="matrix(0.0377844,0,0,0.03777342,2362.4313,1895.9791)"
   id="polygon4" />
 </g>
  <g
   id="_9_-_7"
   transform="translate(-1937,-1630)">
   <polygon
   points="36616.31,15801.91 35534.66,16310.82 34627.01,14436.83 34945.05,14334.61 35512.24,13711.81 "
   transform="matrix(0.0377844,0,0,0.03777342,2362.4313,1895.9791)"
   id="polygon5" />
 </g>
  <g
   id="_9_-_22"
   transform="translate(-1937,-1630)">
   <polygon
   points="36914.25,17642.19 36095.62,16046.9 35191.81,16472.13 35970.56,18098.7 "
   transform="matrix(0.0377844,0,0,0.03777342,2362.4313,1895.9791)"
   id="polygon6" />
 </g>
 <g
   id="_11_-_10"
   transform="translate(-1937,-1630)">
   <polygon
   points="40553.97,19292.19 39696.86,19555.45 39287.15,17151.88 40554.31,16542.99 40611.42,19291.52 "
   transform="matrix(0.0377844,0,0,0.03777342,2362.4313,1895.9791)"
   id="polygon7" />
 </g>
  <g
   id="_11_-_7"
   transform="translate(-1937,-1630)">
   <polygon
   points="37226,18142.31 37844.2,20124.51 36884.45,20419.31 36285.4,18594.28 "
   transform="matrix(0.0377844,0,0,0.03777342,2362.4313,1895.9791)"
   id="polygon8" />
 </g>
 <g
   id="_11_-_8"
   transform="translate(-1937,-1630)">
   <polygon
   points="38138.85,17703.66 38770.97,19839.85 37844.78,20124.34 37226,18142.31 "
   transform="matrix(0.0377844,0,0,0.03777342,2362.4313,1895.9791)"
   id="polygon9" />
 </g>
  <g
   id="_11_-_21"
   transform="translate(-1937,-1630)">
   <polygon
   points="35897.25,20722.54 36885.04,20421.09 36870.63,22570.53 35897.33,22730.74 "
   transform="matrix(0.0377844,0,0,0.03777342,2362.4313,1895.9791)"
   id="polygon10" />
 </g>
  <g
   id="_11_-_23-24"
   transform="translate(-1937,-1630)">
   <polygon
   points="32685.79,21708.7 34937.66,21017.28 34923.29,22824.69 33054.43,22897.97 "
   transform="matrix(0.0377844,0,0,0.03777342,2362.4313,1895.9791)"
   id="polygon11" />
 </g>
 
 <g
   id="_12_-_10"
   transform="translate(-1937,-1630)">
   <polygon
   points="43830.31,23187.82 43954.1,26987.86 44857.91,26989.99 44773.31,22936.35 "
   transform="matrix(0.0377844,0,0,0.03777342,2362.4313,1895.9791)"
   id="polygon12" />
 </g>
 <g
   id="_12_-_17"
   transform="translate(-1937,-1630)">
   <polygon
   points="49963.97,21531.02 50481.83,23064.25 52087.07,22205.65 51571.18,21630.23 50618.76,21511.17 "
   transform="matrix(0.0377844,0,0,0.03777342,2362.4313,1895.9791)"
   id="polygon13" />
 </g>
 <g
   id="_12_-_18"
   transform="translate(-1937,-1630)">
   <polygon
   points="50481.83,23064.25 51114.81,24924.01 51551.33,24090.64 52206.12,23098.54 52305.33,22642.17 52087.07,22205.65 "
   transform="matrix(0.0377844,0,0,0.03777342,2362.4313,1895.9791)"
   id="polygon14" />
 </g>
 <g
   id="_12_-_19"
   transform="translate(-1937,-1630)">
   <polygon
   points="51114.81,24924.01 50705.84,23727.46 48992.51,24259.36 49077.3,26999.94 52245.81,27007.42 52245.81,26451.84 51293.39,26174.06 50936.23,25420.06 "
   transform="matrix(0.0377844,0,0,0.03777342,2362.4313,1895.9791)"
   id="polygon15" />
 </g>
  <g
   id="_7_-_6-7"
   transform="translate(-1937,-1630)">
   <polygon
   points="43397.43,8142.05 45300.78,7576.99 44804.15,5080.61 42974.76,5837.31 42935.57,5878.69 "
   transform="matrix(0.0377844,0,0,0.03777342,2362.4313,1895.9791)"
   id="polygon16" />
 </g>

 <g
   id="_7_-_18-19"
   transform="translate(-1937,-1630)">
   <polygon
   points="56835.19,5166.01 56225.84,1267.3 55299.45,1459.06 55395.88,2191.98 54429.43,2415.35 54906,5188.97 "
   transform="matrix(0.0377844,0,0,0.03777342,2362.4313,1895.9791)"
   id="polygon17" />
 </g>
 <g
   id="_7_-_20"
   transform="translate(-1937,-1630)">
   <polygon
   points="57188.95,1067.94 56225.84,1267.3 56835.19,5166.01 57151.04,5162.25 57749.91,4701.79 "
   transform="matrix(0.0377844,0,0,0.03777342,2362.4313,1895.9791)"
   id="polygon18" />
 </g>
 <g
   id="_7_-_21"
   transform="translate(-1937,-1630)">
   <polygon
   points="57188.95,1067.94 58170.38,864.79 58711.23,4288.1 58153.99,4390.75 57749.91,4701.79 "
   transform="matrix(0.0377844,0,0,0.03777342,2362.4313,1895.9791)"
   id="polygon19" />
 </g>
  <g
   id="_16_-_12-13"
   transform="translate(-1937,-1630)">
   <polygon
   points="54382.32,5789.95 54569.01,7288.39 56933.26,7258.38 56746.01,5933.75 56572.42,5760.16 "
   transform="matrix(0.0377844,0,0,0.03777342,2362.4313,1895.9791)"
   id="polygon20" />
 </g>
  <g
   id="_16_-_17"
   transform="translate(-1937,-1630)">
   <polygon
   points="54687.81,8238.72 54893.35,9886.87 53807.83,9915.02 53582.57,8235 "
   transform="matrix(0.0377844,0,0,0.03777342,2362.4313,1895.9791)"
   id="polygon21" />
 </g>
 <g
   id="_17_-_1"
   transform="translate(-1937,-1630)">
   <polygon
   points="57506.43,6725.39 58796.57,6553.71 58662.21,4862.37 58501.16,4892.23 57382.49,5760.16 "
   transform="matrix(0.0377844,0,0,0.03777342,2362.4313,1895.9791)"
   id="polygon22" />
 </g>
 <g
   id="_17_-_2"
   transform="translate(-1937,-1630)">
   <polygon
   points="59979.89,6396.04 58796.57,6553.71 58662.21,4862.37 59775.76,4655.92 "
   transform="matrix(0.0377844,0,0,0.03777342,2362.4313,1895.9791)"
   id="polygon23" />
 </g>
 <g
   id="_17_-_3"
   transform="translate(-1937,-1630)">
   <polygon
   points="59775.76,4655.92 59979.89,6396.04 61132.66,6242.44 60951.55,4437.94 "
   transform="matrix(0.0377844,0,0,0.03777342,2362.4313,1895.9791)"
   id="polygon24" />
 </g>
  <g
   id="_17_-_23"
   transform="translate(-1937,-1630)">
   <polygon
   points="57506.43,6725.39 57630.6,7692.47 60096.23,7385.54 59979.89,6396.04 "
   transform="matrix(0.0377844,0,0,0.03777342,2362.4313,1895.9791)"
   id="polygon25" />
 </g>
 <g
   id="_17_-_10"
   transform="translate(-1937,-1630)">
   <polygon
   points="63004.58,10858.61 63115.89,11723.98 60644.21,12046.4 60546,11211.09 "
   transform="matrix(0.0377844,0,0,0.03777342,2362.4313,1895.9791)"
   id="polygon26" />
 </g>
 <g
   id="_17_-_11-12"
   transform="translate(-1937,-1630)">
   <polygon
   points="60873.82,14011.97 63371.57,13711.84 63115.89,11723.98 60644.21,12046.4 "
   transform="matrix(0.0377844,0,0,0.03777342,2362.4313,1895.9791)"
   id="polygon27" />
 </g>
  <g
   id="_18_-_11-12"
   transform="translate(-1937,-1630)">
   <polygon
   points="57074.66,24927.27 56939,24772.23 57030.05,22012.66 58997.2,22051.3 58043.66,24462.16 "
   transform="matrix(0.0377844,0,0,0.03777342,2362.4313,1895.9791)"
   id="polygon28" />
 </g>
 <g
   id="_19_-_4-5"
   transform="translate(-1937,-1630)">
   <polygon
   points="60037.89,26170.74 58887.23,23962.33 59587.36,22205.65 60043.73,21769.12 61520.47,24871.43 60658.83,25420.06 "
   transform="matrix(0.0377844,0,0,0.03777342,2362.4313,1895.9791)"
   id="polygon29" />
 </g>
  <g
   id="_31_-_4"
   transform="translate(-1937,-1630)">
   <polygon
   points="75744.15,15577.48 75262.53,16771.88 73387.82,15512.82 74099.88,14423.37 "
   transform="matrix(0.0377844,0,0,0.03777342,2362.4313,1895.9791)"
   id="polygon30" />
 </g>
  <g
   id="_29_-_6-7"
   transform="translate(-1937,-1630)">
   <polygon
   points="76149.19,9096.89 75956.31,9309.06 74141.65,9269.17 74200.5,7818.66 76201.4,7895.84 "
   transform="matrix(0.0377844,0,0,0.03777342,2362.4313,1895.9791)"
   id="polygon31" />
 </g>
 <g
   id="_24_-_1-2"
   transform="translate(-1937,-1630)">
   <polygon
   points="69840.08,6686.52 67930.08,6634.33 67990.59,5220.11 68144.89,5065.82 69904.24,5116.16 "
   transform="matrix(0.0377844,0,0,0.03777342,2362.4313,1895.9791)"
   id="polygon32" />
 </g>
  <g
   id="_24_-_8-9"
   transform="translate(-1937,-1630)">
   <polygon
   points="67836.29,8826.87 67890.71,7554.61 69801.56,7629.38 69740.88,9114.95 68029.17,9077.61 "
   transform="matrix(0.0377844,0,0,0.03777342,2362.4313,1895.9791)"
   id="polygon33" />
 </g>
 <g
   id="_22_-_5"
   transform="translate(-1937,-1630)">
   <polygon
   points="67676.63,11677.15 68672.51,11682.78 68745.68,9680.05 67750.89,9645.11 "
   transform="matrix(0.0377844,0,0,0.03777342,2362.4313,1895.9791)"
   id="polygon34" />
 </g>
 <g
   id="_22_-_6"
   transform="translate(-1937,-1630)">
   <polygon
   points="69681.36,9712.16 68745.68,9680.05 68672.51,11682.78 69609.65,11688.07 "
   transform="matrix(0.0377844,0,0,0.03777342,2362.4313,1895.9791)"
   id="polygon35" />
 </g>
 <g
   id="_22_-_15-16"
   transform="translate(-1937,-1630)">
   <polygon
   points="65765.27,11666.35 63634.05,11654.84 63805.21,12992.96 64017.38,13205.12 65745.49,13264.86 "
   transform="matrix(0.0377844,0,0,0.03777342,2362.4313,1895.9791)"
   id="polygon36" />
 </g>
 <g
   id="_22_-_17"
   transform="translate(-1937,-1630)">
   <polygon
   points="65776.28,10763.4 65765.27,11666.35 63634.05,11654.84 63512.46,10704.21 "
   transform="matrix(0.0377844,0,0,0.03777342,2362.4313,1895.9791)"
   id="polygon37" />
 </g>
 
<g
   id="_19_-_14-15"
   transform="translate(-1937,-1630)"
   inkscape:label="_19_-_14-15">
   <polygon
   class="fil43 str26"
   points="66524.07,21628.13 67504.34,21630.23 69032.18,20558.76 68913.12,19269.02 67583.71,19348.39 66553.12,18578.98 "
   id="polygon2631-0"
   transform="matrix(0.0377844,0,0,0.03777342,2362.4698,1896.6461)"
   style="clip-rule:evenodd;fill-rule:evenodd;image-rendering:optimizeQuality;shape-rendering:geometricPrecision;text-rendering:geometricPrecision;fill:#000000;stroke:#fefefe;stroke-width:0;stroke-miterlimit:22.9256;stroke-dasharray:none"
   inkscape:label="polygon38" />
 </g></svg>
